<svg width="40" height="40" viewBox="0 0 40 40" fill="none" xmlns="http://www.w3.org/2000/svg">
<path d="M16.8711 15.7197V12.5947C16.8711 12.0974 17.2008 11.6205 17.7876 11.2689C18.3744 10.9173 19.1704 10.7197 20.0003 10.7197C20.8302 10.7197 21.6261 10.9173 22.2129 11.2689C22.7998 11.6205 23.1295 12.0974 23.1295 12.5947V15.7197" stroke="#1A1B22" stroke-linecap="round" stroke-linejoin="round"/>
<path d="M14.0864 15.7197H25.9136C26.2144 15.7197 26.5117 15.7847 26.785 15.9103C27.0583 16.0359 27.3012 16.2191 27.4971 16.4474C27.6929 16.6756 27.8371 16.9436 27.9197 17.2328C28.0024 17.522 28.0215 17.8256 27.9758 18.1229L26.6667 26.626C26.5531 27.3649 26.1786 28.0388 25.6111 28.5255C25.0436 29.0122 24.3206 29.2797 23.573 29.2795H16.426C15.6785 29.2795 14.9557 29.0119 14.3885 28.5252C13.8212 28.0384 13.4469 27.3647 13.3333 26.626L12.0242 18.1229C11.9785 17.8256 11.9976 17.522 12.0803 17.2328C12.1629 16.9436 12.3071 16.6756 12.5029 16.4474C12.6988 16.2191 12.9417 16.0359 13.215 15.9103C13.4883 15.7847 13.7856 15.7197 14.0864 15.7197Z" stroke="#1A1B22" stroke-linecap="round" stroke-linejoin="round"/>
</svg>
